<svg width="440" height="90" viewBox="0 0 440 90" fill="none" xmlns="http://www.w3.org/2000/svg">
<rect width="78.14" height="78.14" rx="20" fill="#159712"/>
<path d="M39.2578 52.4026L61.4344 30.2261" stroke="#141514" stroke-width="4.94654"/>
<path d="M39.2579 89.736V35.1911L32.0388 27.9719" stroke="#141514" stroke-width="4.94654"/>
<path d="M17.7419 44.8167L39.2579 66.3326" stroke="#141514" stroke-width="4.94654"/>
<circle cx="59.6415" cy="32.2079" r="5.0762" fill="white" stroke="#141514" stroke-width="4.94654"/>
<circle cx="28.2462" cy="23.3205" r="5.0762" fill="white" stroke="#141514" stroke-width="4.94654"/>
<circle cx="15.477" cy="42.7406" r="5.0762" fill="white" stroke="#141514" stroke-width="4.94654"/>
<mask id="path-8-outside-1_13_1549" maskUnits="userSpaceOnUse" x="104.109" y="22" width="336" height="45" fill="black">
<rect fill="white" x="104.109" y="22" width="336" height="45"/>
<path d="M105.109 66.2822V23.5838H119.48C122.816 23.5838 125.544 24.1884 127.662 25.3976C129.794 26.593 131.372 28.2122 132.397 30.2554C133.421 32.2986 133.933 34.5781 133.933 37.0938C133.933 39.6096 133.421 41.896 132.397 43.9531C131.386 46.0102 129.822 47.6503 127.703 48.8734C125.585 50.0826 122.872 50.6873 119.563 50.6873H109.262V46.1005H119.397C121.681 46.1005 123.515 45.7044 124.9 44.9121C126.284 44.1199 127.288 43.0496 127.911 41.7014C128.548 40.3393 128.866 38.8034 128.866 37.0938C128.866 35.3842 128.548 33.8553 127.911 32.5071C127.288 31.1588 126.277 30.1025 124.879 29.338C123.481 28.5597 121.626 28.1705 119.313 28.1705H110.259V66.2822H105.109Z"/>
<path d="M142.23 66.2822V23.5838H147.38V61.6954H167.15V66.2822H142.23Z"/>
<path d="M179.553 66.2822H174.154L189.771 23.5838H195.087L210.704 66.2822H205.304L192.595 30.3388H192.263L179.553 66.2822ZM181.547 49.6031H203.311V54.1899H181.547V49.6031Z"/>
<path d="M251.054 23.5838V66.2822H246.07L222.894 32.7573H222.479V66.2822H217.328V23.5838H222.312L245.571 57.1921H245.987V23.5838H251.054Z"/>
<path d="M259.034 28.1705V23.5838H290.932V28.1705H277.558V66.2822H272.408V28.1705H259.034Z"/>
<path d="M298.133 66.2822V62.5294L312.171 47.1013C313.819 45.2944 315.175 43.7237 316.241 42.3894C317.307 41.0412 318.097 39.7764 318.609 38.5949C319.135 37.3996 319.398 36.1487 319.398 34.8421C319.398 33.341 319.038 32.0414 318.318 30.9434C317.612 29.8454 316.643 28.9975 315.411 28.3998C314.179 27.8022 312.794 27.5033 311.257 27.5033C309.624 27.5033 308.198 27.8439 306.979 28.5249C305.775 29.1921 304.84 30.1303 304.176 31.3395C303.525 32.5488 303.2 33.9665 303.2 35.5927H298.299C298.299 33.0908 298.873 30.8948 300.022 29.0045C301.172 27.1142 302.736 25.6409 304.716 24.5845C306.709 23.5282 308.945 23 311.423 23C313.915 23 316.124 23.5282 318.048 24.5845C319.973 25.6409 321.482 27.0655 322.575 28.8585C323.669 30.6515 324.216 32.6461 324.216 34.8421C324.216 36.4128 323.932 37.9486 323.364 39.4497C322.811 40.937 321.842 42.5979 320.457 44.4326C319.086 46.2534 317.183 48.4773 314.746 51.1042L305.193 61.3619V61.6954H324.964V66.2822H298.133Z"/>
<path d="M342.013 66.2822L330.384 23.5838H335.617L344.505 58.3596H344.921L353.975 23.5838H359.79L368.844 58.3596H369.259L378.148 23.5838H383.381L371.751 66.2822H366.435L357.048 32.2569H356.716L347.33 66.2822H342.013Z"/>
<path d="M394.948 23.5838V66.2822H389.798V23.5838H394.948Z"/>
<path d="M439 23.5838V66.2822H434.016L410.84 32.7573H410.425V66.2822H405.275V23.5838H410.259L433.518 57.1921H433.933V23.5838H439Z"/>
</mask>
<path d="M105.109 66.2822V23.5838H119.48C122.816 23.5838 125.544 24.1884 127.662 25.3976C129.794 26.593 131.372 28.2122 132.397 30.2554C133.421 32.2986 133.933 34.5781 133.933 37.0938C133.933 39.6096 133.421 41.896 132.397 43.9531C131.386 46.0102 129.822 47.6503 127.703 48.8734C125.585 50.0826 122.872 50.6873 119.563 50.6873H109.262V46.1005H119.397C121.681 46.1005 123.515 45.7044 124.9 44.9121C126.284 44.1199 127.288 43.0496 127.911 41.7014C128.548 40.3393 128.866 38.8034 128.866 37.0938C128.866 35.3842 128.548 33.8553 127.911 32.5071C127.288 31.1588 126.277 30.1025 124.879 29.338C123.481 28.5597 121.626 28.1705 119.313 28.1705H110.259V66.2822H105.109Z" fill="#141514"/>
<path d="M142.23 66.2822V23.5838H147.38V61.6954H167.15V66.2822H142.23Z" fill="#141514"/>
<path d="M179.553 66.2822H174.154L189.771 23.5838H195.087L210.704 66.2822H205.304L192.595 30.3388H192.263L179.553 66.2822ZM181.547 49.6031H203.311V54.1899H181.547V49.6031Z" fill="#141514"/>
<path d="M251.054 23.5838V66.2822H246.07L222.894 32.7573H222.479V66.2822H217.328V23.5838H222.312L245.571 57.1921H245.987V23.5838H251.054Z" fill="#141514"/>
<path d="M259.034 28.1705V23.5838H290.932V28.1705H277.558V66.2822H272.408V28.1705H259.034Z" fill="#141514"/>
<path d="M298.133 66.2822V62.5294L312.171 47.1013C313.819 45.2944 315.175 43.7237 316.241 42.3894C317.307 41.0412 318.097 39.7764 318.609 38.5949C319.135 37.3996 319.398 36.1487 319.398 34.8421C319.398 33.341 319.038 32.0414 318.318 30.9434C317.612 29.8454 316.643 28.9975 315.411 28.3998C314.179 27.8022 312.794 27.5033 311.257 27.5033C309.624 27.5033 308.198 27.8439 306.979 28.5249C305.775 29.1921 304.84 30.1303 304.176 31.3395C303.525 32.5488 303.2 33.9665 303.2 35.5927H298.299C298.299 33.0908 298.873 30.8948 300.022 29.0045C301.172 27.1142 302.736 25.6409 304.716 24.5845C306.709 23.5282 308.945 23 311.423 23C313.915 23 316.124 23.5282 318.048 24.5845C319.973 25.6409 321.482 27.0655 322.575 28.8585C323.669 30.6515 324.216 32.6461 324.216 34.8421C324.216 36.4128 323.932 37.9486 323.364 39.4497C322.811 40.937 321.842 42.5979 320.457 44.4326C319.086 46.2534 317.183 48.4773 314.746 51.1042L305.193 61.3619V61.6954H324.964V66.2822H298.133Z" fill="#141514"/>
<path d="M342.013 66.2822L330.384 23.5838H335.617L344.505 58.3596H344.921L353.975 23.5838H359.79L368.844 58.3596H369.259L378.148 23.5838H383.381L371.751 66.2822H366.435L357.048 32.2569H356.716L347.33 66.2822H342.013Z" fill="#141514"/>
<path d="M394.948 23.5838V66.2822H389.798V23.5838H394.948Z" fill="#141514"/>
<path d="M439 23.5838V66.2822H434.016L410.84 32.7573H410.425V66.2822H405.275V23.5838H410.259L433.518 57.1921H433.933V23.5838H439Z" fill="#141514"/>
<path d="M105.109 66.2822V23.5838H119.48C122.816 23.5838 125.544 24.1884 127.662 25.3976C129.794 26.593 131.372 28.2122 132.397 30.2554C133.421 32.2986 133.933 34.5781 133.933 37.0938C133.933 39.6096 133.421 41.896 132.397 43.9531C131.386 46.0102 129.822 47.6503 127.703 48.8734C125.585 50.0826 122.872 50.6873 119.563 50.6873H109.262V46.1005H119.397C121.681 46.1005 123.515 45.7044 124.9 44.9121C126.284 44.1199 127.288 43.0496 127.911 41.7014C128.548 40.3393 128.866 38.8034 128.866 37.0938C128.866 35.3842 128.548 33.8553 127.911 32.5071C127.288 31.1588 126.277 30.1025 124.879 29.338C123.481 28.5597 121.626 28.1705 119.313 28.1705H110.259V66.2822H105.109Z" stroke="#141514" stroke-width="1.23663" mask="url(#path-8-outside-1_13_1549)"/>
<path d="M142.23 66.2822V23.5838H147.38V61.6954H167.15V66.2822H142.23Z" stroke="#141514" stroke-width="1.23663" mask="url(#path-8-outside-1_13_1549)"/>
<path d="M179.553 66.2822H174.154L189.771 23.5838H195.087L210.704 66.2822H205.304L192.595 30.3388H192.263L179.553 66.2822ZM181.547 49.6031H203.311V54.1899H181.547V49.6031Z" stroke="#141514" stroke-width="1.23663" mask="url(#path-8-outside-1_13_1549)"/>
<path d="M251.054 23.5838V66.2822H246.07L222.894 32.7573H222.479V66.2822H217.328V23.5838H222.312L245.571 57.1921H245.987V23.5838H251.054Z" stroke="#141514" stroke-width="1.23663" mask="url(#path-8-outside-1_13_1549)"/>
<path d="M259.034 28.1705V23.5838H290.932V28.1705H277.558V66.2822H272.408V28.1705H259.034Z" stroke="#141514" stroke-width="1.23663" mask="url(#path-8-outside-1_13_1549)"/>
<path d="M298.133 66.2822V62.5294L312.171 47.1013C313.819 45.2944 315.175 43.7237 316.241 42.3894C317.307 41.0412 318.097 39.7764 318.609 38.5949C319.135 37.3996 319.398 36.1487 319.398 34.8421C319.398 33.341 319.038 32.0414 318.318 30.9434C317.612 29.8454 316.643 28.9975 315.411 28.3998C314.179 27.8022 312.794 27.5033 311.257 27.5033C309.624 27.5033 308.198 27.8439 306.979 28.5249C305.775 29.1921 304.84 30.1303 304.176 31.3395C303.525 32.5488 303.2 33.9665 303.2 35.5927H298.299C298.299 33.0908 298.873 30.8948 300.022 29.0045C301.172 27.1142 302.736 25.6409 304.716 24.5845C306.709 23.5282 308.945 23 311.423 23C313.915 23 316.124 23.5282 318.048 24.5845C319.973 25.6409 321.482 27.0655 322.575 28.8585C323.669 30.6515 324.216 32.6461 324.216 34.8421C324.216 36.4128 323.932 37.9486 323.364 39.4497C322.811 40.937 321.842 42.5979 320.457 44.4326C319.086 46.2534 317.183 48.4773 314.746 51.1042L305.193 61.3619V61.6954H324.964V66.2822H298.133Z" stroke="#141514" stroke-width="1.23663" mask="url(#path-8-outside-1_13_1549)"/>
<path d="M342.013 66.2822L330.384 23.5838H335.617L344.505 58.3596H344.921L353.975 23.5838H359.79L368.844 58.3596H369.259L378.148 23.5838H383.381L371.751 66.2822H366.435L357.048 32.2569H356.716L347.33 66.2822H342.013Z" stroke="#141514" stroke-width="1.23663" mask="url(#path-8-outside-1_13_1549)"/>
<path d="M394.948 23.5838V66.2822H389.798V23.5838H394.948Z" stroke="#141514" stroke-width="1.23663" mask="url(#path-8-outside-1_13_1549)"/>
<path d="M439 23.5838V66.2822H434.016L410.84 32.7573H410.425V66.2822H405.275V23.5838H410.259L433.518 57.1921H433.933V23.5838H439Z" stroke="#141514" stroke-width="1.23663" mask="url(#path-8-outside-1_13_1549)"/>
</svg>
